<svg width="26" height="26" viewBox="0 0 26 26" fill="none" xmlns="http://www.w3.org/2000/svg">
<path d="M22.8752 6.35449V23.8545C22.8752 24.186 22.7435 24.504 22.5091 24.7384C22.2747 24.9728 21.9568 25.1045 21.6252 25.1045H4.12524C3.79372 25.1045 3.47578 24.9728 3.24136 24.7384C3.00694 24.504 2.87524 24.186 2.87524 23.8545V6.35449H0.375244V3.85449H25.3752V6.35449H22.8752ZM11.6252 8.85449V11.3545H14.1252V8.85449H11.6252ZM11.6252 12.6045V15.1045H14.1252V12.6045H11.6252ZM11.6252 16.3545V18.8545H14.1252V16.3545H11.6252ZM6.62524 0.104492H19.1252V2.60449H6.62524V0.104492Z" fill="white"/>
</svg>
