<svg width="26" height="26" viewBox="0 0 26 26" fill="none" xmlns="http://www.w3.org/2000/svg">
<path d="M12.5328 13.8081C14.604 13.8081 16.2828 15.4869 16.2828 17.5581C16.2828 18.6206 15.8415 19.5781 15.1328 20.2606L12.7453 22.5581H16.2828V25.0581H8.78278V22.9031L13.399 18.4594C13.6365 18.2306 13.7828 17.9119 13.7828 17.5581C13.7828 16.8681 13.2228 16.3081 12.5328 16.3081C11.8428 16.3081 11.2828 16.8681 11.2828 17.5581H8.78278C8.78278 15.4869 10.4615 13.8081 12.5328 13.8081ZM20.0328 13.8081V18.8081H22.5328V13.8081H25.0328V25.0581H22.5328V21.3081H17.5328V13.8081H20.0328ZM2.53278 12.5581C2.53278 15.7169 3.99653 18.5331 6.28278 20.3656V23.3856C2.54653 21.2244 0.0327759 17.1856 0.0327759 12.5581H2.53278ZM12.5328 0.0581055C19.014 0.0581055 24.344 4.99186 24.9703 11.3081H22.4553C21.8403 6.37561 17.6328 2.55811 12.5328 2.55811C9.09528 2.55811 6.06278 4.29186 4.26403 6.93311H7.53278V9.43311H0.0327759V1.93311H2.53278V5.05811C4.81278 2.02061 8.44403 0.0581055 12.5328 0.0581055Z" fill="#FF9250"/>
</svg>
